Coordinates
version=1
nRows=11
nColumns=38
inDegrees=no

Units are S.I. units (second, meters, Newtons, ...)
If the header above contains a line with 'inDegrees', this indicates whether rotational values are in degrees (yes) or radians (no).

endheader
time	pelvis_tilt	pelvis_list	pelvis_rotation	pelvis_tx	pelvis_ty	pelvis_tz	hip_flexion_r	hip_adduction_r	hip_rotation_r	knee_angle_r	ankle_angle_r	subtalar_angle_r	mtp_angle_r	hip_flexion_l	hip_adduction_l	hip_rotation_l	knee_angle_l	ankle_angle_l	subtalar_angle_l	mtp_angle_l	lumbar_extension	lumbar_bending	lumbar_rotation	arm_flex_r	arm_add_r	arm_rot_r	elbow_flex_r	pro_sup_r	wrist_flex_r	wrist_dev_r	arm_flex_l	arm_add_l	arm_rot_l	elbow_flex_l	pro_sup_l	wrist_flex_l	wrist_dev_l
149.99000000	-0.03183882	0.13438548	-0.06688936	-0.06536291	0.89228585	-0.01213081	-0.03994117	-0.22190860	-0.06562745	0.79349760	-0.12788868	0.00000000	0.00000000	0.51740735	0.10809949	-0.16808518	0.55222646	0.06553041	0.00000000	0.00000000	-0.13414232	-0.17156702	0.17422508	0.04894316	-0.24543221	-0.30526551	1.29377466	1.39864551	0.00000000	0.00000000	-0.19495911	-0.21247916	-0.00960629	0.08958257	1.57080000	0.00000000	0.00000000
150.00000000	-0.03290354	0.14257041	-0.06318528	-0.06504737	0.89386588	-0.01466704	-0.01450145	-0.23760956	-0.06782817	0.83889196	-0.21694909	0.00000000	0.00000000	0.49998455	0.12214302	-0.16870974	0.54706940	0.08089123	0.00000000	0.00000000	-0.13117793	-0.17867480	0.17002468	0.02453568	-0.23194482	-0.31564883	1.27946995	1.39529083	0.00000000	0.00000000	-0.18362401	-0.21292607	-0.00123209	0.10412906	1.57080000	0.00000000	0.00000000
150.01000000	-0.03311637	0.14896320	-0.06198607	-0.06512873	0.89552573	-0.01683924	0.01331584	-0.25005143	-0.06329441	0.88486741	-0.29633441	0.00000000	0.00000000	0.48159077	0.13339854	-0.16956780	0.54136531	0.09555562	0.00000000	0.00000000	-0.12968420	-0.18417277	0.16702181	0.00318964	-0.21956693	-0.32223817	1.25980298	1.39136420	0.00000000	0.00000000	-0.17104893	-0.21288851	0.00187955	0.12020013	1.57080000	0.00000000	0.00000000
150.02000000	-0.03267935	0.15434037	-0.06320563	-0.06559297	0.89722016	-0.01863274	0.04377600	-0.26053221	-0.05477694	0.93179029	-0.35699826	0.00000000	0.00000000	0.46251988	0.14276948	-0.17099085	0.53488725	0.10936384	0.00000000	0.00000000	-0.12940630	-0.18897710	0.16484114	-0.01469784	-0.20816996	-0.32497485	1.23441320	1.38693730	0.00000000	0.00000000	-0.15743219	-0.21254172	-0.00017226	0.13763337	1.57080000	0.00000000	0.00000000
150.03000000	-0.03211035	0.15929049	-0.06659693	-0.06638845	0.89888209	-0.02006887	0.07705062	-0.27000507	-0.04470291	0.97891480	-0.39145510	0.00000000	0.00000000	0.44328072	0.15098207	-0.17320522	0.52737696	0.12222864	0.00000000	0.00000000	-0.12964636	-0.19369332	0.16323282	-0.02907966	-0.19769107	-0.32392745	1.20305525	1.38148732	0.00000000	0.00000000	-0.14315007	-0.21192093	-0.00608168	0.15642603	1.57080000	0.00000000	0.00000000
150.04000000	-0.03184029	0.16379711	-0.07180062	-0.06745444	0.90046636	-0.02117831	0.11286174	-0.27833752	-0.03439638	1.02459268	-0.39729379	0.00000000	0.00000000	0.42431029	0.15814257	-0.17616411	0.51889971	0.13417088	0.00000000	0.00000000	-0.12984070	-0.19821017	0.16214445	-0.04022673	-0.18823334	-0.31936486	1.16574550	1.37446414	0.00000000	0.00000000	-0.12835964	-0.21100412	-0.01414072	0.17626563	1.57080000	0.00000000	0.00000000
150.05000000	-0.03202038	0.16732524	-0.07835762	-0.06874351	0.90197417	-0.02199389	0.15058314	-0.28450364	-0.02413124	1.06697296	-0.37892852	0.00000000	0.00000000	0.40577484	0.16384501	-0.17961938	0.50978436	0.14537025	0.00000000	0.00000000	-0.12983014	-0.20183392	0.16157749	-0.04854469	-0.17998093	-0.31177111	1.12264112	1.36602034	0.00000000	0.00000000	-0.11283580	-0.20980352	-0.02329295	0.19628997	1.57080000	0.00000000	0.00000000
150.06000000	-0.03269827	0.16935084	-0.08570125	-0.07022340	0.90342960	-0.02256194	0.18961712	-0.28743935	-0.01366997	1.10458785	-0.34536684	0.00000000	0.00000000	0.38769652	0.16772123	-0.18332947	0.50030240	0.15608174	0.00000000	0.00000000	-0.12960125	-0.20387484	0.16133544	-0.05436594	-0.17301118	-0.30168104	1.07384302	1.35705985	0.00000000	0.00000000	-0.09631138	-0.20839357	-0.03313379	0.21562717	1.57080000	0.00000000	0.00000000
150.07000000	-0.03398454	0.16979738	-0.09316900	-0.07185883	0.90484656	-0.02295015	0.22945443	-0.28678257	-0.00296013	1.13650870	-0.30557351	0.00000000	0.00000000	0.37007249	0.16988263	-0.18714812	0.49041067	0.16640325	0.00000000	0.00000000	-0.12901456	-0.20412427	0.16092126	-0.05790769	-0.16719020	-0.28950275	1.01943331	1.34854394	0.00000000	0.00000000	-0.07886481	-0.20692928	-0.04301748	0.23411108	1.57080000	0.00000000	0.00000000
150.08000000	-0.03592185	0.16900481	-0.10007679	-0.07359396	0.90622992	-0.02323746	0.26935982	-0.28299205	0.00739856	1.16223287	-0.26520870	0.00000000	0.00000000	0.35271068	0.17088032	-0.19094871	0.47973022	0.17613368	0.00000000	0.00000000	-0.12794519	-0.20284474	0.15968694	-0.05938080	-0.16221974	-0.27558837	0.95967983	1.34103139	0.00000000	0.00000000	-0.06088457	-0.20565190	-0.05166247	0.25230828	1.57080000	0.00000000	0.00000000
150.09000000	-0.03823964	0.16736360	-0.10585201	-0.07535655	0.90760159	-0.02349496	0.30816045	-0.27694159	0.01622574	1.18154403	-0.22658556	0.00000000	0.00000000	0.33502832	0.17130318	-0.19455508	0.46777624	0.18492670	0.00000000	0.00000000	-0.12663303	-0.20040302	0.15710262	-0.05909301	-0.15776617	-0.26055173	0.89518899	1.33513463	0.00000000	0.00000000	-0.04273497	-0.20480895	-0.05772305	0.27094328	1.57080000	0.00000000	0.00000000
